<?xml version="1.0" encoding="utf-8"?>
<!-- Generator: Adobe Illustrator 24.1.3, SVG Export Plug-In . SVG Version: 6.00 Build 0)  -->
<svg version="1.1" id="LOGO" xmlns="http://www.w3.org/2000/svg" xmlns:xlink="http://www.w3.org/1999/xlink" x="0px" y="0px"
	 width="960px" height="300px" viewBox="0 0 960 300" enable-background="new 0 0 960 300" xml:space="preserve">
<path fill="#6428B4" d="M860,105c0,8.3-6.7,15-15,15h-42.3c-1.5,0-2.7,1.2-2.7,2.7V140h60v5c0,8.3-6.7,15-15,15h-45v17.3
	c0,1.5,1.2,2.7,2.7,2.7H860v5c0,8.3-6.7,15-15,15h-50c-8.3,0-15-6.7-15-15v-70c0-8.3,6.7-15,15-15h65V105 M683,120c-1.7,0-3,1.3-3,3
	v27h45c8.5,0,15.4-7.2,15-15.8c-0.4-8-7.2-14.2-15.2-14.2H683 M760,134.6c0.2,13.9-7.8,26-19.4,31.8L760,200h-17.3
	c-3.6,0-6.9-1.9-8.7-5l-14.4-25H680v15c0,8.3-6.7,15-15,15h-5v-85c0-8.3,6.7-15,15-15h49C743.4,100,759.8,115.2,760,134.6
	 M355.9,104.1l-33.8,33.8c-1.2,1.2-3.1,1.2-4.2,0l-33.7-33.7c-2.7-2.6-6.3-4.1-10-4.1c-7.8,0-14.2,6.3-14.2,14.1V200h5
	c8.3,0,15-6.7,15-15v-53.5c0-1.2,1.4-1.8,2.3-0.9l27.1,27.1c5.9,5.9,15.4,5.9,21.2,0l27.1-27.1c0.8-0.8,2.3-0.2,2.3,0.9V200h5
	c8.3,0,15-6.7,15-15v-71c0-7.7-6.3-14-14-14h-0.2C362.1,100,358.5,101.5,355.9,104.1 M225,200c8.3,0,15-6.7,15-15v-85h-5
	c-8.3,0-15,6.7-15,15v85H225 M164.6,150c8.1,0,15-6.2,15.4-14.2c0.4-8.6-6.5-15.8-15-15.8h-42c-1.7,0-3,1.3-3,3v27H164.6 M164.1,100
	c19.6,0,36.3,16.1,35.9,35.7c-0.4,19-15.9,34.3-35,34.3h-45v15c0,8.3-6.7,15-15,15h-5v-85c0-8.3,6.7-15,15-15H164.1 M590,180
	c16.5,0,30-13.5,30-30s-13.5-30-30-30c-10.4,0-19.6,5.3-25,13.4L554,150l10.9,16.5C570.3,174.6,579.5,180,590,180 M590,100
	c27.6,0,50,22.4,50,50c0,27.6-22.4,50-50,50c-17.4,0-32.7-8.9-41.7-22.4l-6.3-9.5l-13.6,20.5c-12.5,18.9-34,31.4-58.4,31.4
	c-38.7,0-70-31.3-70-70c0-38.7,31.3-70,70-70c24.3,0,45.7,12.4,58.2,31.1l1.8,2.7l-12,18.1l-6.6-9.9c-9-13.3-24.2-22-41.4-22
	c-27.6,0-50,22.4-50,50s22.4,50,50,50c17.4,0,32.7-8.9,41.7-22.4l36.6-55.2C557.2,108.9,572.6,100,590,100"/>
<path fill="#6428B4" d="M890,100c-5.5,0-10,4.5-10,10c0,5.5,4.5,10,10,10c5.5,0,10-4.5,10-10C900,104.5,895.5,100,890,100z
	 M890,118.1c-4.5,0-8.1-3.6-8.1-8.1c0-4.5,3.6-8.1,8.1-8.1c4.5,0,8.1,3.6,8.1,8.1C898.1,114.5,894.5,118.1,890,118.1z M894.8,108.5
	c0-1.8-1.7-3.3-3.5-3.3h-4.7c-0.7,0-1.3,0.6-1.3,1.3v8.2h0.9c0.6,0,1-0.4,1-1v-1.9h3.8l1.4,2.4c0.2,0.3,0.5,0.5,0.9,0.5h1.6
	l-1.8-3.2C894,111,894.8,109.9,894.8,108.5z M891.4,110h-4.3v-2.7c0-0.1,0.1-0.2,0.2-0.2h4c0.7,0,1.4,0.5,1.5,1.3
	C892.9,109.3,892.3,110,891.4,110z"/>
</svg>
